<?xml version="1.0" encoding="UTF-8" standalone="no"?>
<svg
   width="1440"
   height="1185"
   viewBox="0 0 1440 1185"
   fill="none"
   version="1.1"
   id="svg25"
   sodipodi:docname="website-bg.svg"
   inkscape:export-filename="hero-bg/layer3.svg"
   inkscape:export-xdpi="96"
   inkscape:export-ydpi="96"
   xmlns:inkscape="http://www.inkscape.org/namespaces/inkscape"
   xmlns:sodipodi="http://sodipodi.sourceforge.net/DTD/sodipodi-0.dtd"
   xmlns="http://www.w3.org/2000/svg"
   xmlns:svg="http://www.w3.org/2000/svg">
  <sodipodi:namedview
     id="namedview25"
     pagecolor="#505050"
     bordercolor="#eeeeee"
     borderopacity="1"
     inkscape:showpageshadow="0"
     inkscape:pageopacity="0"
     inkscape:pagecheckerboard="0"
     inkscape:deskcolor="#505050" />
  <g
     clip-path="url(#clip0_59_391)"
     id="g15">
    <path
       d="m -21.1678,790.882 c -48.9598,17.621 -10.2,77.375 15.29991,105.049 -29.46651,-10.166 -88.73961,-22.027 -90.09951,11.86 -1.36,33.887 40.2331,52.525 61.1997,57.608 -51.6798,0 -54.3998,28.239 -49.2998,42.361 23.1199,35.24 85.56624,40.66 113.8994,38.97 46.2398,-5.42 98.5991,-28.24 118.9991,-38.97 24.48,-16.268 20.4,-39.537 15.3,-49.138 -14.96,-37.954 -56.099,-19.203 -74.7994,-5.083 46.2394,-63.708 28.3334,-93.19 13.6004,-99.967 -28.5603,-18.977 -54.9668,20.333 -64.6001,42.359 1.36,-113.86 -39.099814,-117.474 -59.4997,-105.049 z"
       fill="#5e38be"
       id="path7" />
    <ellipse
       cx="344"
       cy="214.5"
       rx="344"
       ry="214.5"
       transform="matrix(-1,0,0,1,1655,956)"
       fill="#5e38be"
       id="ellipse7" />
    <ellipse
       cx="344"
       cy="214.5"
       rx="344"
       ry="214.5"
       transform="matrix(-1,0,0,1,1187,978)"
       fill="#5e38be"
       id="ellipse8" />
    <ellipse
       cx="344"
       cy="206"
       rx="344"
       ry="206"
       transform="matrix(-1,0,0,1,643,926)"
       fill="#5e38be"
       id="ellipse9" />
    <path
       d="m 1310.22,768.181 c -50.14,7.38 -24.79,72.105 -5.84,103.545 -26.14,-15.446 -80.37,-38.293 -88.26,-6.112 -7.89,32.182 28.16,58.09 47.17,67.021 -49.3,-10.019 -57.39,16.491 -55.27,30.999 15.2,38.226 73.72,55.526 101.08,59.396 45.16,3.77 99.55,-7.93 121.1,-14.25 26.52,-10.825 27.15,-33.894 24.16,-44.076 -6.89,-39.238 -49.79,-29.261 -70.37,-19.367 56.51,-52.032 45.16,-83.731 32.42,-93.076 -23.55,-23.705 -56.39,8.812 -69.87,28.034 23.45,-108.751 -14.44,-120.056 -36.32,-112.114 z"
       fill="#5e38be"
       id="path9" />
    <path
       d="m 258.146,764.219 c 44.556,0.351 30.282,59.741 17.575,89.392 20.898,-16.604 65.383,-43.051 76.136,-16.004 10.753,27.047 -17.524,53.956 -33.006,64.03 41.732,-14.687 51.974,7.401 51.878,20.281 -8.628,35.102 -57.509,57.238 -80.872,63.918 -38.883,8.752 -87.665,5.16 -107.196,2.27 -24.402,-6.211 -27.737,-26.208 -26.354,-35.43 1.266,-34.978 39.83,-31.489 58.953,-25.373 -55.49,-38.434 -49.43,-67.391 -39.464,-77.064 17.656,-23.48 50.179,0.839 64.234,15.934 -33.539,-91.791 -1.897,-106.216 18.116,-101.954 z"
       fill="#5e38be"
       id="path10" />
  </g>
  <defs
     id="defs25">
    <clipPath
       id="clip0_59_391">
      <rect
         width="1440"
         height="1185"
         fill="#ffffff"
         id="rect25"
         x="0"
         y="0" />
    </clipPath>
  </defs>
</svg>
