<?xml version="1.0" encoding="UTF-8" standalone="no"?>
<svg
   width="1440"
   height="1185"
   viewBox="0 0 1440 1185"
   fill="none"
   version="1.1"
   id="svg25"
   sodipodi:docname="website-bg.svg"
   inkscape:export-filename="hero-bg/layer2.svg"
   inkscape:export-xdpi="96"
   inkscape:export-ydpi="96"
   xmlns:inkscape="http://www.inkscape.org/namespaces/inkscape"
   xmlns:sodipodi="http://sodipodi.sourceforge.net/DTD/sodipodi-0.dtd"
   xmlns="http://www.w3.org/2000/svg"
   xmlns:svg="http://www.w3.org/2000/svg">
  <sodipodi:namedview
     id="namedview25"
     pagecolor="#505050"
     bordercolor="#eeeeee"
     borderopacity="1"
     inkscape:showpageshadow="0"
     inkscape:pageopacity="0"
     inkscape:pagecheckerboard="0"
     inkscape:deskcolor="#505050" />
  <g
     clip-path="url(#clip0_59_391)"
     id="g15">
    <path
       d="m 1207.62,556.543 c -73.8,76.794 -76.87,227.92 -69.18,293.883 53.81,26.09 152.72,62.617 117.87,0 -34.85,-62.616 5.98,-212.167 30.75,-279.115 -10.25,-57.891 38.44,-116.667 64.06,-138.819 41,-46.077 68.34,-119.621 76.88,-150.634 -65.6,99.241 -87.12,41.35 -89.69,0 16.4,-38.988 -18.79,-72.363 -38.43,-84.178 C 1197.38,127.975 1159.79,70.183 1153.81,50 c -24.6,37.8061 58.09,133.897 102.5,177.216 32.8,44.895 34.17,126.021 30.75,160.972 -7.68,32.489 -10.25,25.105 -43.56,2.953 -26.65,-17.722 -38.44,-41.843 -41,-51.688 14.35,-51.983 -26.48,-77.778 -48.69,-84.178 13.67,5.415 38.95,25.401 30.75,62.026 -8.2,36.625 -64.91,-69.41 -92.25,-127.005 18.45,77.975 -41.85,37.412 -74.31,7.384 8.54,13.784 35.36,44.895 74.31,59.072 38.95,14.177 103.36,110.268 130.69,156.541 28.7,57.891 1.71,119.621 -15.38,143.25 z"
       fill="#241d63"
       id="path3" />
    <path
       d="m 256.375,558.074 c 73.8,84.151 76.875,249.756 69.188,322.04 -53.813,28.59 -152.726,68.615 -117.875,0 34.85,-68.616 -5.98,-232.495 -30.75,-305.857 C 187.188,510.82 138.5,446.412 112.875,422.137 71.875,371.647 44.5417,291.056 36,257.072 c 65.6,108.749 87.125,45.312 89.688,0 -16.4,-42.723 18.791,-79.297 38.437,-92.243 C 266.625,88.4458 304.208,25.1166 310.188,3 c 24.599,41.4283 -58.084,146.725 -102.5,194.195 -32.8,49.196 -34.167,138.094 -30.75,176.394 7.687,35.602 10.25,27.511 43.562,3.236 26.65,-19.419 38.438,-45.851 41,-56.64 -14.35,-56.964 26.479,-85.23 48.688,-92.243 -13.667,5.934 -38.95,27.835 -30.75,67.969 8.199,40.133 64.916,-76.06 92.25,-139.173 -18.45,85.445 41.854,40.996 74.312,8.091 -8.542,15.104 -35.362,49.196 -74.312,64.732 C 332.738,245.096 268.333,350.393 241,401.1 c -28.7,63.437 -1.708,131.081 15.375,156.974 z"
       fill="#241d63"
       id="path4" />
  </g>
  <defs
     id="defs25">
    <clipPath
       id="clip0_59_391">
      <rect
         width="1440"
         height="1185"
         fill="#ffffff"
         id="rect25"
         x="0"
         y="0" />
    </clipPath>
  </defs>
</svg>
