<?xml version="1.0" encoding="UTF-8" standalone="no"?>
<svg
   width="1440"
   height="1185"
   viewBox="0 0 1440 1185"
   fill="none"
   version="1.1"
   id="svg25"
   sodipodi:docname="website-bg.svg"
   inkscape:export-filename="hero-bg/layer4.svg"
   inkscape:export-xdpi="96"
   inkscape:export-ydpi="96"
   xmlns:inkscape="http://www.inkscape.org/namespaces/inkscape"
   xmlns:sodipodi="http://sodipodi.sourceforge.net/DTD/sodipodi-0.dtd"
   xmlns="http://www.w3.org/2000/svg"
   xmlns:svg="http://www.w3.org/2000/svg">
  <sodipodi:namedview
     id="namedview25"
     pagecolor="#505050"
     bordercolor="#eeeeee"
     borderopacity="1"
     inkscape:showpageshadow="0"
     inkscape:pageopacity="0"
     inkscape:pagecheckerboard="0"
     inkscape:deskcolor="#505050" />
  <g
     clip-path="url(#clip0_59_391)"
     id="g15">
    <ellipse
       cx="248"
       cy="1028.5"
       rx="344"
       ry="214.5"
       fill="#241d63"
       id="ellipse1" />
    <ellipse
       cx="678"
       cy="1121.5"
       rx="344"
       ry="214.5"
       fill="#241d63"
       id="ellipse2" />
    <ellipse
       cx="1205"
       cy="1050.5"
       rx="344"
       ry="214.5"
       fill="#241d63"
       id="ellipse3" />
    <path
       d="m 1386.1,705.142 c 31.34,11.343 6.53,49.805 -9.8,67.618 18.86,-6.543 56.81,-14.178 57.68,7.634 0.87,21.813 -25.76,33.809 -39.18,37.081 33.08,0 34.83,18.177 31.56,27.266 -14.8,22.684 -54.77,26.174 -72.91,25.084 -29.6,-3.49 -63.12,-18.177 -76.18,-25.084 -15.67,-10.47 -13.06,-25.448 -9.79,-31.628 9.57,-24.43 35.91,-12.361 47.88,-3.272 -29.6,-41.007 -18.14,-59.984 -8.71,-64.346 18.29,-12.215 35.19,13.087 41.36,27.265 -0.87,-73.289 25.03,-75.616 38.09,-67.618 z"
       fill="#241d63"
       id="path5" />
    <path
       d="m 81.614,615.515 c 48.84,2.838 30.106,67.433 14.6342,99.376 23.7778,-17.129 73.9288,-43.797 84.3168,-13.43 10.388,30.367 -22.015,58.435 -39.515,68.673 46.524,-13.873 56.609,11.007 55.836,25.181 -11.283,38.168 -66.033,59.848 -91.997,65.916 -43.0925,7.496 -96.3983,0.858 -117.6647,-3.398 -26.436,-8.181 -29.0555,-30.379 -27.0608,-40.455 3.2039,-38.436 45.30958,-32.474 65.9619,-24.688 -58.854,-45.365 -50.7066,-76.908 -39.2761,-87.009 20.57865,-24.877 54.9806,3.685 69.6092,21.075 C 24.4439,623.861 59.8894,609.722 81.614,615.515 Z"
       fill="#241d63"
       id="path6" />
  </g>
  <defs
     id="defs25">
    <clipPath
       id="clip0_59_391">
      <rect
         width="1440"
         height="1185"
         fill="#ffffff"
         id="rect25"
         x="0"
         y="0" />
    </clipPath>
  </defs>
</svg>
