<?xml version="1.0" encoding="UTF-8" standalone="no"?>
<svg
   id="Layer_6"
   viewBox="0 0 1080 1080"
   version="1.1"
   sodipodi:docname="emerging-tech.svg"
   inkscape:version="1.3 (0e150ed6c4, 2023-07-21)"
   xmlns:inkscape="http://www.inkscape.org/namespaces/inkscape"
   xmlns:sodipodi="http://sodipodi.sourceforge.net/DTD/sodipodi-0.dtd"
   xmlns="http://www.w3.org/2000/svg"
   xmlns:svg="http://www.w3.org/2000/svg">
  <defs
     id="defs3" />
  <sodipodi:namedview
     id="namedview3"
     pagecolor="#505050"
     bordercolor="#eeeeee"
     borderopacity="1"
     inkscape:showpageshadow="0"
     inkscape:pageopacity="0"
     inkscape:pagecheckerboard="0"
     inkscape:deskcolor="#505050"
     inkscape:zoom="1.1083333"
     inkscape:cx="539.54887"
     inkscape:cy="540"
     inkscape:window-width="2560"
     inkscape:window-height="1403"
     inkscape:window-x="0"
     inkscape:window-y="0"
     inkscape:window-maximized="1"
     inkscape:current-layer="Layer_6" />
  <polygon
     points="540.33 853.07 540.54 853.07 540.12 853.07 540.33 853.07"
     id="polygon1" />
  <path
     d="m853.54,573.78l-.14-33.89h0v-.21s0-.21,0-.21h0l.14-33.89,73.02-66.75c-9.36-35.83-23.57-69.7-41.89-100.86l-98.98,4.44-24.06-23.87h0s-.14-.14-.14-.14l-.15-.15h0s-23.87-24.06-23.87-24.06l4.43-98.79c-31.19-18.28-65.07-32.45-100.92-41.76l-66.87,73.16-33.89.14h0s-.21,0-.21,0h-.21s0,0,0,0l-33.89-.14-66.75-73.02c-35.83,9.36-69.7,23.57-100.86,41.89l4.44,98.98-23.87,24.06h0s-.14.14-.14.14l-.15.15h0s-24.06,23.87-24.06,23.87l-98.79-4.43c-18.28,31.19-32.45,65.07-41.76,100.92l73.16,66.87.14,33.89h0v.21s0,.21,0,.21h0l-.14,33.89-73.02,66.75c9.36,35.83,23.57,69.7,41.89,100.86l98.98-4.44,24.06,23.87h0s.15.15.15.15l.15.15h0s23.87,24.06,23.87,24.06l-4.43,98.79c31.19,18.28,65.07,32.44,100.92,41.76l66.87-73.15,33.89-.14h0s.42,0,.42,0h0s33.89.14,33.89.14l66.74,73.02c35.83-9.36,69.7-23.57,100.86-41.89l-4.44-98.98,23.87-24.06h0s.15-.15.15-.15l.15-.15h0s24.06-23.87,24.06-23.87l98.79,4.43c18.28-31.19,32.45-65.07,41.76-100.92l-73.16-66.87Zm-225.63,178.24c-.09,1.85-.69,3.49-1.77,4.94-2.76,3.73-8.64,6.19-16.86,7.82-3.93.78-8.39,1.37-13.3,1.81,6.4,1.59,11.02,3.97,13.3,7.52,1.04,1.62,1.59,3.5,1.59,5.65s-.55,4.02-1.59,5.64c-3.91,6.14-14.82,8.77-29.77,9.9,5.39,2.38,8.57,6.27,8.57,12.65,0,14.36-16.03,16.14-37.33,16.36-3.01.03-6.13.03-9.32.03-25.77,0-46.65,0-46.65-16.39,0-6.27,3.06-10.13,8.27-12.52-15.93-1.05-27.6-3.64-31.68-10.04-1.03-1.62-1.59-3.49-1.59-5.64s.55-4.03,1.59-5.65c2.27-3.56,6.9-5.93,13.3-7.52-4.91-.44-9.37-1.03-13.3-1.81-8.22-1.63-14.1-4.09-16.86-7.82-1.07-1.45-1.68-3.08-1.77-4.94-83.21-34.41-141.77-116.37-141.77-212.02,0-126.67,102.68-229.35,229.35-229.35s229.35,102.68,229.35,229.35c0,95.65-58.55,177.6-141.77,212.02Z"
     id="path1"
     style="fill:#e5ccff;fill-opacity:1" />
  <path
     d="m567.82,543.17c0-15.18-12.31-27.49-27.49-27.49s-27.49,12.31-27.49,27.49c0,11.49,7.05,21.33,17.06,25.44v169.74c3.42,0,6.9,0,10.43,0s7.01,0,10.43,0v-169.74c10.01-4.11,17.06-13.95,17.06-25.44Z"
     id="path2"
     style="fill:#e5ccff;fill-opacity:1" />
  <path
     d="m701.87,540c0-89.21-72.32-161.53-161.53-161.53s-161.53,72.32-161.53,161.53c0,57.68,30.24,108.29,75.72,136.87v69.27c-1.17,1.57-1.79,3.37-1.79,5.42,0,.16.01.31.02.46,6.14-8.43,43.69-8.59,87.58-8.7s85.81,2.82,87.58,8.7c0-.15.02-.3.02-.46,0-2.05-.62-3.85-1.79-5.42v-69.27c45.48-28.58,75.72-79.19,75.72-136.87Zm-92.58,125.63v72.71c-14.02-2.77-34.82-3.12-58.53-3.17-3.42,0-6.9,0-10.43,0s-7.01,0-10.43,0c-23.71.04-44.52.39-58.53,3.17v-73.83c-5.89-3.32-11.52-7.04-16.86-11.13-34.04-26.1-55.99-67.18-55.99-113.38,0-78.87,63.94-142.8,142.8-142.8s142.8,63.94,142.8,142.8c0,47.11-22.81,88.88-57.99,114.89-5.35,3.95-10.98,7.55-16.86,10.74Z"
     id="path3"
     style="fill:#e5ccff;fill-opacity:1" />
</svg>
