<?xml version="1.0" encoding="UTF-8" standalone="no"?>
<svg
   id="Layer_4"
   viewBox="0 0 1080 1080"
   version="1.1"
   sodipodi:docname="entertainment.svg"
   inkscape:version="1.3 (0e150ed6c4, 2023-07-21)"
   xmlns:inkscape="http://www.inkscape.org/namespaces/inkscape"
   xmlns:sodipodi="http://sodipodi.sourceforge.net/DTD/sodipodi-0.dtd"
   xmlns="http://www.w3.org/2000/svg"
   xmlns:svg="http://www.w3.org/2000/svg">
  <sodipodi:namedview
     id="namedview13"
     pagecolor="#505050"
     bordercolor="#eeeeee"
     borderopacity="1"
     inkscape:showpageshadow="0"
     inkscape:pageopacity="0"
     inkscape:pagecheckerboard="0"
     inkscape:deskcolor="#505050"
     inkscape:zoom="1.1083333"
     inkscape:cx="539.54887"
     inkscape:cy="540"
     inkscape:window-width="2560"
     inkscape:window-height="1403"
     inkscape:window-x="0"
     inkscape:window-y="0"
     inkscape:window-maximized="1"
     inkscape:current-layer="Layer_4" />
  <defs
     id="defs1">
    <style
       id="style1">.cls-1{fill:none;}</style>
  </defs>
  <path
     d="m842.15,279.32H222.67c-19.71,0-35.69,19.83-35.69,44.29v425.76c0,24.46,15.98,44.29,35.69,44.29h619.47c19.71,0,35.69-19.83,35.69-44.29v-425.76c0-24.46-15.98-44.29-35.69-44.29Zm13.56,465.89c0,23.71-15.48,42.92-34.58,42.92H226.05c-19.1,0-34.58-19.22-34.58-42.92v-416.57c0-23.71,15.48-42.92,34.58-42.92h595.08c19.1,0,34.58,19.22,34.58,42.92v416.57Z"
     id="path1"
     style="fill:#e5ccff;fill-opacity:1" />
  <path
     d="m633.4,512.42l-153.78-88.78c-11.79-6.81-26.53,1.7-26.53,15.32v177.57c0,13.61,14.74,22.12,26.53,15.32l153.78-88.78c11.79-6.81,11.79-23.82,0-30.63Z"
     id="path2"
     style="fill:#e5ccff;fill-opacity:1" />
  <circle
     cx="310.73"
     cy="252.16"
     r="9.81"
     id="circle2"
     style="fill:#e5ccff;fill-opacity:1" />
  <circle
     cx="279.65"
     cy="252.16"
     r="9.81"
     id="circle3"
     style="fill:#e5ccff;fill-opacity:1" />
  <circle
     cx="249.39"
     cy="252.16"
     r="9.81"
     id="circle4"
     style="fill:#e5ccff;fill-opacity:1" />
  <path
     class="cls-1"
     d="m450.58,728.19c-6.36-1.08-12.45,2.04-15.47,7.34h25.95c-2.14-3.76-5.88-6.56-10.48-7.34Z"
     id="path4" />
  <path
     class="cls-1"
     d="m435.1,750.31c2.14,3.76,5.88,6.56,10.48,7.34,6.36,1.08,12.45-2.04,15.47-7.34h-25.95Z"
     id="path5" />
  <path
     d="m425.69,735.53h-180.29c-1.64,0-2.97,1.33-2.97,2.97v8.84c0,1.64,1.33,2.97,2.97,2.97h180.29c-.77-2.33-1.19-4.81-1.19-7.39s.42-5.06,1.19-7.39Z"
     id="path6"
     style="fill:#e5ccff;fill-opacity:1" />
  <path
     d="m825.89,735.53h-422.88c.62,2.33.96,4.81.96,7.39s-.34,5.06-.96,7.39h422.88c1.29,0,2.34-1.3,2.34-2.91v-8.97c0-1.61-1.05-2.91-2.34-2.91Z"
     id="path7"
     style="fill:#e5ccff;fill-opacity:1" />
  <path
     class="cls-1"
     d="m913.9,254.93c0-29.15-19.04-52.77-42.52-52.77H206.56c-23.48,0-42.52,23.63-42.52,52.77v552.81h749.86V254.93Z"
     id="path8" />
  <path
     class="cls-1"
     d="m880.64,815.19H164.04v6.99c0,11.87,3.16,22.82,8.49,31.64h-15.59v-38.63h-21.57c-2.79,0-5.06,2.81-5.06,6.28v40.61c0,8.96,5.85,16.22,13.07,16.22h729.24c7.22,0,13.07-7.26,13.07-16.22v-40.61c0-3.47-2.27-6.28-5.06-6.28Z"
     id="path9" />
  <path
     d="m914.23,194.25H201.01c-24.34,0-44.08,24.49-44.08,54.7v558.8h7.1V254.93c0-29.15,19.04-52.77,42.52-52.77h664.82c23.48,0,42.52,23.63,42.52,52.77v552.81h37.13c3.17,0,5.74,3.19,5.74,7.12V247.05c0-29.16-19.05-52.8-42.54-52.8Z"
     id="path10"
     style="fill:#e5ccff;fill-opacity:1" />
  <path
     d="m951.03,807.75H129.14c-3.26,0-5.91,3.28-5.91,7.33v50.86c0,10.94,7.15,19.81,15.96,19.81h801.61c8.82,0,15.96-8.87,15.96-19.81v-51.07c0-3.93-2.57-7.12-5.74-7.12Zm-65.33,54.34c0,8.96-5.85,16.22-13.07,16.22H143.38c-7.22,0-13.07-7.26-13.07-16.22v-40.61c0-3.47,2.27-6.28,5.06-6.28h745.26c2.79,0,5.06,2.81,5.06,6.28v40.61Z"
     id="path11"
     style="fill:#e5ccff;fill-opacity:1" />
  <path
     d="m182.83,875.65c0,10.74-11.91,10.74-11.91,0s2.67-19.45,5.95-19.45,5.95,8.71,5.95,19.45Z"
     id="path12"
     style="fill:#e5ccff;fill-opacity:1" />
  <path
     d="m162.74,875.65c0,10.74-11.91,10.74-11.91,0s2.67-19.45,5.95-19.45,5.95,8.71,5.95,19.45Z"
     id="path13"
     style="fill:#e5ccff;fill-opacity:1" />
  <circle
     cx="368.63"
     cy="742.92"
     r="21.57"
     id="circle13"
     style="fill:#e5ccff;fill-opacity:1" />
</svg>
