<?xml version="1.0" encoding="UTF-8" standalone="no"?>
<svg
   id="Layer_5"
   viewBox="0 0 1080 1080"
   version="1.1"
   sodipodi:docname="productivity.svg"
   inkscape:version="1.3 (0e150ed6c4, 2023-07-21)"
   xmlns:inkscape="http://www.inkscape.org/namespaces/inkscape"
   xmlns:sodipodi="http://sodipodi.sourceforge.net/DTD/sodipodi-0.dtd"
   xmlns="http://www.w3.org/2000/svg"
   xmlns:svg="http://www.w3.org/2000/svg">
  <sodipodi:namedview
     id="namedview10"
     pagecolor="#505050"
     bordercolor="#eeeeee"
     borderopacity="1"
     inkscape:showpageshadow="0"
     inkscape:pageopacity="0"
     inkscape:pagecheckerboard="0"
     inkscape:deskcolor="#505050"
     inkscape:zoom="0.74537037"
     inkscape:cx="539.32919"
     inkscape:cy="540"
     inkscape:window-width="1920"
     inkscape:window-height="1011"
     inkscape:window-x="0"
     inkscape:window-y="0"
     inkscape:window-maximized="1"
     inkscape:current-layer="Layer_5" />
  <defs
     id="defs1">
    <style
       id="style1">.cls-1{fill:none;}</style>
  </defs>
  <path
     d="m798.44,210.03h-23.32v574.13c0,23.25-18.85,42.1-42.1,42.1h-433.59v16.33c0,23.27,18.87,42.14,42.14,42.14h456.88c23.27,0,42.14-18.87,42.14-42.14V252.17c0-23.27-18.87-42.14-42.14-42.14Z"
     id="path1"
     style="fill:#e5ccff;fill-opacity:1" />
  <path
     d="m359.08,239.74c-36.26,0-65.66,29.4-65.66,65.66s29.4,65.66,65.66,65.66,65.66-29.4,65.66-65.66-29.4-65.66-65.66-65.66Zm0,123.37c-31.87,0-57.71-25.84-57.71-57.71s25.84-57.71,57.71-57.71,57.71,25.84,57.71,57.71-25.84,57.71-57.71,57.71Z"
     id="path2"
     style="fill:#e5ccff;fill-opacity:1" />
  <rect
     x="335.38"
     y="303.4"
     width="10.9"
     height="36.11"
     transform="translate(-124.74 373.83) rotate(-49.74)"
     id="rect2"
     style="fill:#e5ccff;fill-opacity:1" />
  <rect
     x="334.39"
     y="301.25"
     width="70.92"
     height="10.9"
     transform="translate(-103.21 390.75) rotate(-49.74)"
     id="rect3"
     style="fill:#e5ccff;fill-opacity:1" />
  <path
     d="m359.08,489.72c-36.26,0-65.66,29.4-65.66,65.66s29.4,65.66,65.66,65.66,65.66-29.4,65.66-65.66-29.4-65.66-65.66-65.66Zm0,123.37c-31.87,0-57.71-25.84-57.71-57.71s25.84-57.71,57.71-57.71,57.71,25.84,57.71,57.71-25.84,57.71-57.71,57.71Z"
     id="path3"
     style="fill:#e5ccff;fill-opacity:1" />
  <rect
     x="335.38"
     y="553.38"
     width="10.9"
     height="36.11"
     transform="translate(-315.51 462.26) rotate(-49.74)"
     id="rect4"
     style="fill:#e5ccff;fill-opacity:1" />
  <rect
     x="334.39"
     y="551.23"
     width="70.92"
     height="10.9"
     transform="translate(-293.98 479.19) rotate(-49.74)"
     id="rect5"
     style="fill:#e5ccff;fill-opacity:1" />
  <rect
     x="471.85"
     y="294.5"
     width="233.13"
     height="17.24"
     id="rect6"
     style="fill:#e5ccff;fill-opacity:1" />
  <rect
     x="385.33"
     y="392.11"
     width="319.65"
     height="17.24"
     id="rect7"
     style="fill:#e5ccff;fill-opacity:1" />
  <rect
     x="471.23"
     y="540.67"
     width="233.13"
     height="17.24"
     id="rect8"
     style="fill:#e5ccff;fill-opacity:1" />
  <rect
     x="384.71"
     y="638.27"
     width="319.65"
     height="17.24"
     id="rect9"
     style="fill:#e5ccff;fill-opacity:1" />
  <path
     class="cls-1"
     d="m273.95,785.8h433.59c23.25,0,42.1-18.85,42.1-42.1V169.57h12.06c-7.04-6.56-16.47-10.57-26.84-10.57h-449.72c-21.76,0-39.39,17.64-39.39,39.39v581.35c0,19.03,13.49,34.91,31.44,38.59-2.08-4.99-3.23-10.46-3.23-16.2v-16.33Z"
     id="path9" />
  <path
     d="m780.58,784.32V195.12c0-9.61-3.23-18.46-8.65-25.55-7.69-10.06-19.81-16.55-33.45-16.55h-456.96c-23.25,0-42.1,18.85-42.1,42.1v589.19c0,23.25,18.85,42.1,42.1,42.1h456.96c23.25,0,42.1-18.85,42.1-42.1Zm-495.44,34.82c-2.73,0-5.39-.28-7.96-.8-17.94-3.68-31.44-19.56-31.44-38.59V198.39c0-21.76,17.64-39.39,39.39-39.39h449.72c10.38,0,19.81,4.02,26.84,10.57,7.72,7.19,12.55,17.44,12.55,28.82v581.35c0,21.76-17.64,39.39-39.39,39.39h-449.72Z"
     id="path10"
     style="fill:#e5ccff;fill-opacity:1" />
</svg>
