<svg width="41" height="40" viewBox="0 0 41 40" fill="none" xmlns="http://www.w3.org/2000/svg">
<path fill-rule="evenodd" clip-rule="evenodd" d="M0.25 8C0.25 3.58172 3.83172 0 8.25 0H32.25C36.6682 0 40.25 3.58172 40.25 8V32C40.25 36.4182 36.6682 40 32.25 40H8.25C3.83172 40 0.25 36.4182 0.25 32V8ZM8.25 4C6.04086 4 4.25 5.79086 4.25 8V32C4.25 34.2092 6.04086 36 8.25 36H20.25V22H18.25C17.1454 22 16.25 21.1046 16.25 20C16.25 18.8954 17.1454 18 18.25 18H20.25V15C20.25 11.134 23.384 8 27.25 8H28.45C29.5546 8 30.45 8.89544 30.45 10C30.45 11.1046 29.5546 12 28.45 12H27.25C25.5932 12 24.25 13.3431 24.25 15V18H28.45C29.5546 18 30.45 18.8954 30.45 20C30.45 21.1046 29.5546 22 28.45 22H24.25V36H32.25C34.4592 36 36.25 34.2092 36.25 32V8C36.25 5.79086 34.4592 4 32.25 4H8.25Z" fill="#E5CCFF"/>
</svg>
