<svg width="43" height="42" viewBox="0 0 43 42" fill="none" xmlns="http://www.w3.org/2000/svg">
<g clip-path="url(#clip0_116_69)">
<path fill-rule="evenodd" clip-rule="evenodd" d="M12.5763 0.257731C9.15772 0.411976 6.19471 1.24777 3.80214 3.63024C1.40121 6.02523 0.575797 8.99998 0.421168 12.383C0.325046 14.4945 -0.23702 30.4464 1.39285 34.6299C2.49197 37.4521 4.65672 39.6221 7.50482 40.7248C8.83379 41.2417 10.3509 41.5916 12.5763 41.6938C31.184 42.5359 38.0817 42.0774 40.9904 34.6299C41.5065 33.3042 41.8617 31.7884 41.9599 29.5685C42.8104 10.9131 41.8221 6.86941 38.579 3.63024C36.0068 1.06433 32.981 -0.682334 12.5763 0.257731ZM12.7476 37.9419C10.7102 37.8501 9.60487 37.5107 8.86725 37.2251C7.0117 36.5039 5.61795 35.1159 4.90123 33.2712C3.66002 30.0925 4.07168 14.9951 4.18243 12.5522C4.29109 10.1593 4.77586 7.97231 6.46424 6.28395C8.55382 4.19953 11.2535 3.17798 29.6356 4.00759C32.0344 4.11597 34.2264 4.59975 35.919 6.28395C38.0086 8.36835 39.045 11.0888 38.2008 29.4004C38.1088 31.4327 37.7683 32.5354 37.482 33.2712C35.5909 38.1174 31.2404 38.7902 12.7476 37.9419ZM29.8383 9.84821C29.8383 11.2281 30.9604 12.3502 32.3458 12.3502C33.7312 12.3502 34.8554 11.2281 34.8554 9.84821C34.8554 8.46834 33.7312 7.34728 32.3458 7.34728C30.9604 7.34728 29.8383 8.46834 29.8383 9.84821ZM10.4616 20.9747C10.4616 26.8861 15.2656 31.6788 21.1916 31.6788C27.1177 31.6788 31.9216 26.8861 31.9216 20.9747C31.9216 15.0634 27.1177 10.2737 21.1916 10.2737C15.2656 10.2737 10.4616 15.0634 10.4616 20.9747ZM14.227 20.9747C14.227 17.1394 17.3447 14.0277 21.1916 14.0277C25.0385 14.0277 28.1562 17.1394 28.1562 20.9747C28.1562 24.8121 25.0385 27.9248 21.1916 27.9248C17.3447 27.9248 14.227 24.8121 14.227 20.9747Z" fill="#E5CCFF"/>
</g>
<defs>
<clipPath id="clip0_116_69">
<rect width="42" height="42" fill="white" transform="translate(0.25)"/>
</clipPath>
</defs>
</svg>
