<svg width="44" height="36" viewBox="0 0 44 36" fill="none" xmlns="http://www.w3.org/2000/svg">
<path fill-rule="evenodd" clip-rule="evenodd" d="M27.5887 4.11402C24.0902 4.11402 21.2542 6.95608 21.2542 10.462C21.2542 10.891 21.2963 11.3081 21.3761 11.71C21.5046 12.3573 21.3153 13.0272 20.8672 13.5109C20.4191 13.9947 19.7666 14.2336 19.1128 14.1531C14.58 13.5959 10.4568 11.719 7.13663 8.92114C7.20131 10.1593 7.62963 11.4745 8.55916 12.8524L9.95248 14.9177L7.66444 15.8962L7.22297 16.0851C7.55111 16.4611 7.94564 16.8474 8.38612 17.2269C8.88591 17.6575 9.3689 18.0154 9.72769 18.2655C9.9059 18.3898 10.0505 18.4854 10.1474 18.5481C10.1957 18.5794 10.232 18.6022 10.2543 18.6162L10.2772 18.6304L10.2789 18.6317L13.4579 20.563L10.1315 22.2298C9.96679 22.3123 9.80243 22.3859 9.63875 22.4513C10.3065 23.0151 11.1192 23.5343 11.9839 23.9439L14.8367 25.2953L12.4475 27.361C11.1433 28.4886 9.83139 29.3291 8.13112 29.7734C10.6505 31.1206 13.5372 31.886 16.6086 31.886C26.4719 31.886 34.416 23.9982 34.416 14.3315V13.2625L35.2888 12.648C36.6513 11.6892 37.6146 10.3925 38.3043 8.91011H35.1656H33.8695L33.3124 7.73741C32.2925 5.5907 30.1107 4.11402 27.5887 4.11402ZM4.43498 19.1295C4.04803 19.5736 3.86456 20.1705 3.94872 20.7693C4.18028 22.417 5.16489 23.8361 6.25287 24.9193C6.54834 25.2135 6.86433 25.4959 7.19612 25.7652C7.14542 25.7793 7.09433 25.7929 7.04277 25.8059C6.05469 26.0537 4.72326 26.1054 2.50286 25.8873C1.6444 25.803 0.824975 26.2656 0.451942 27.045C0.0789087 27.8242 0.231874 28.7542 0.834787 29.3723C4.82111 33.4594 10.4192 36 16.6086 36C28.3347 36 37.9531 26.8757 38.4971 15.3608C41.1436 13.1329 42.4686 10.1169 43.1834 7.37269C43.3441 6.75618 43.2105 6.09989 42.8217 5.59564C42.4331 5.09138 41.8331 4.7961 41.1974 4.7961H36.3662C34.5094 1.91318 31.2735 0 27.5887 0C22.1101 0 17.6171 4.229 17.1831 9.60719C13.3467 8.61086 9.98066 6.43664 7.49308 3.48792C7.03936 2.95008 6.34258 2.68223 5.64631 2.77803C4.95004 2.87382 4.35107 3.31993 4.05879 3.96042C2.81757 6.68017 2.57837 9.81725 3.96767 13.0044L3.48796 13.2096C2.53798 13.6158 2.03727 14.6664 2.31883 15.6622C2.69829 17.0044 3.5574 18.1894 4.43498 19.1295Z" fill="#E5CCFF"/>
</svg>
