<svg width="1440" height="1185" viewBox="0 0 1440 1185" fill="none" xmlns="http://www.w3.org/2000/svg">
<g clip-path="url(#clip0_59_391)">
<rect width="1440" height="1185" fill="#1B002C"/>
<ellipse cx="248" cy="1028.5" rx="344" ry="214.5" fill="#241D63"/>
<ellipse cx="678" cy="1121.5" rx="344" ry="214.5" fill="#241D63"/>
<ellipse cx="1205" cy="1050.5" rx="344" ry="214.5" fill="#241D63"/>
<path d="M1207.62 556.543C1133.82 633.337 1130.75 784.463 1138.44 850.426C1192.25 876.516 1291.16 913.043 1256.31 850.426C1221.46 787.81 1262.29 638.259 1287.06 571.311C1276.81 513.42 1325.5 454.644 1351.12 432.492C1392.12 386.415 1419.46 312.871 1428 281.858C1362.4 381.099 1340.88 323.208 1338.31 281.858C1354.71 242.87 1319.52 209.495 1299.88 197.68C1197.38 127.975 1159.79 70.183 1153.81 50C1129.21 87.8061 1211.9 183.897 1256.31 227.216C1289.11 272.111 1290.48 353.237 1287.06 388.188C1279.38 420.677 1276.81 413.293 1243.5 391.141C1216.85 373.419 1205.06 349.298 1202.5 339.453C1216.85 287.47 1176.02 261.675 1153.81 255.275C1167.48 260.69 1192.76 280.676 1184.56 317.301C1176.36 353.926 1119.65 247.891 1092.31 190.296C1110.76 268.271 1050.46 227.708 1018 197.68C1026.54 211.464 1053.36 242.575 1092.31 256.752C1131.26 270.929 1195.67 367.02 1223 413.293C1251.7 471.184 1224.71 532.914 1207.62 556.543Z" fill="#241D63"/>
<path d="M256.375 558.074C330.175 642.225 333.25 807.83 325.563 880.114C271.75 908.704 172.837 948.729 207.688 880.114C242.538 811.498 201.708 647.619 176.938 574.257C187.188 510.82 138.5 446.412 112.875 422.137C71.875 371.647 44.5417 291.056 36 257.072C101.6 365.821 123.125 302.384 125.688 257.072C109.288 214.349 144.479 177.775 164.125 164.829C266.625 88.4458 304.208 25.1166 310.188 3C334.787 44.4283 252.104 149.725 207.688 197.195C174.888 246.391 173.521 335.289 176.938 373.589C184.625 409.191 187.188 401.1 220.5 376.825C247.15 357.406 258.938 330.974 261.5 320.185C247.15 263.221 287.979 234.955 310.188 227.942C296.521 233.876 271.238 255.777 279.438 295.911C287.637 336.044 344.354 219.851 371.688 156.738C353.238 242.183 413.542 197.734 446 164.829C437.458 179.933 410.638 214.025 371.688 229.561C332.738 245.096 268.333 350.393 241 401.1C212.3 464.537 239.292 532.181 256.375 558.074Z" fill="#241D63"/>
<path d="M1386.1 705.142C1417.44 716.485 1392.63 754.947 1376.3 772.76C1395.16 766.217 1433.11 758.582 1433.98 780.394C1434.85 802.207 1408.22 814.203 1394.8 817.475C1427.88 817.475 1429.63 835.652 1426.36 844.741C1411.56 867.425 1371.59 870.915 1353.45 869.825C1323.85 866.335 1290.33 851.648 1277.27 844.741C1261.6 834.271 1264.21 819.293 1267.48 813.113C1277.05 788.683 1303.39 800.752 1315.36 809.841C1285.76 768.834 1297.22 749.857 1306.65 745.495C1324.94 733.28 1341.84 758.582 1348.01 772.76C1347.14 699.471 1373.04 697.144 1386.1 705.142Z" fill="#241D63"/>
<path d="M81.614 615.515C130.454 618.353 111.72 682.948 96.2482 714.891C120.026 697.762 170.177 671.094 180.565 701.461C190.953 731.828 158.55 759.896 141.05 770.134C187.574 756.261 197.659 781.141 196.886 795.315C185.603 833.483 130.853 855.163 104.889 861.231C61.7965 868.727 8.4907 862.089 -12.7757 857.833C-39.2117 849.652 -41.8312 827.454 -39.8365 817.378C-36.6326 778.942 5.47308 784.904 26.1254 792.69C-32.7286 747.325 -24.5812 715.782 -13.1507 705.681C7.42795 680.804 41.8299 709.366 56.4585 726.756C24.4439 623.861 59.8894 609.722 81.614 615.515Z" fill="#241D63"/>
<path d="M-21.1678 790.882C-70.1276 808.503 -31.3678 868.257 -5.86789 895.931C-35.3344 885.765 -94.6075 873.904 -95.9674 907.791C-97.3274 941.678 -55.7343 960.316 -34.7677 965.399C-86.4475 965.399 -89.1675 993.638 -84.0675 1007.76C-60.9476 1043 1.49874 1048.42 29.8319 1046.73C76.0717 1041.31 128.431 1018.49 148.831 1007.76C173.311 991.492 169.231 968.223 164.131 958.622C149.171 920.668 108.032 939.419 89.3316 953.539C135.571 889.831 117.665 860.349 102.932 853.572C74.3717 834.595 47.9652 873.905 38.3319 895.931C39.6919 782.071 -0.767914 778.457 -21.1678 790.882Z" fill="#5E38BE"/>
<ellipse cx="344" cy="214.5" rx="344" ry="214.5" transform="matrix(-1 0 0 1 1655 956)" fill="#5E38BE"/>
<ellipse cx="344" cy="214.5" rx="344" ry="214.5" transform="matrix(-1 0 0 1 1187 978)" fill="#5E38BE"/>
<ellipse cx="344" cy="206" rx="344" ry="206" transform="matrix(-1 0 0 1 643 926)" fill="#5E38BE"/>
<path d="M1310.22 768.181C1260.08 775.561 1285.43 840.286 1304.38 871.726C1278.24 856.28 1224.01 833.433 1216.12 865.614C1208.23 897.796 1244.28 923.704 1263.29 932.635C1213.99 922.616 1205.9 949.126 1208.02 963.634C1223.22 1001.86 1281.74 1019.16 1309.1 1023.03C1354.26 1026.8 1408.65 1015.1 1430.2 1008.78C1456.72 997.955 1457.35 974.886 1454.36 964.704C1447.47 925.466 1404.57 935.443 1383.99 945.337C1440.5 893.305 1429.15 861.606 1416.41 852.261C1392.86 828.556 1360.02 861.073 1346.54 880.295C1369.99 771.544 1332.1 760.239 1310.22 768.181Z" fill="#5E38BE"/>
<path d="M258.146 764.219C302.702 764.57 288.428 823.96 275.721 853.611C296.619 837.007 341.104 810.56 351.857 837.607C362.61 864.654 334.333 891.563 318.851 901.637C360.583 886.95 370.825 909.038 370.729 921.918C362.101 957.02 313.22 979.156 289.857 985.836C250.974 994.588 202.192 990.996 182.661 988.106C158.259 981.895 154.924 961.898 156.307 952.676C157.573 917.698 196.137 921.187 215.26 927.303C159.77 888.869 165.83 859.912 175.796 850.239C193.452 826.759 225.975 851.078 240.03 866.173C206.491 774.382 238.133 759.957 258.146 764.219Z" fill="#5E38BE"/>
<g filter="url(#filter0_d_59_391)">
<circle cx="133" cy="854" r="8" fill="#FED936"/>
</g>
<g filter="url(#filter1_d_59_391)">
<circle cx="1200" cy="841" r="12" fill="#FED936"/>
</g>
<g filter="url(#filter2_d_59_391)">
<circle cx="1163.5" cy="917.5" r="6.5" fill="#FED936"/>
</g>
<g filter="url(#filter3_d_59_391)">
<circle cx="175" cy="627" r="7" fill="#FED936"/>
</g>
<g filter="url(#filter4_d_59_391)">
<circle cx="1300" cy="634" r="6" fill="#FED936"/>
</g>
</g>
<defs>
<filter id="filter0_d_59_391" x="100" y="821" width="66" height="66" filterUnits="userSpaceOnUse" color-interpolation-filters="sRGB">
<feFlood flood-opacity="0" result="BackgroundImageFix"/>
<feColorMatrix in="SourceAlpha" type="matrix" values="0 0 0 0 0 0 0 0 0 0 0 0 0 0 0 0 0 0 127 0" result="hardAlpha"/>
<feMorphology radius="5" operator="dilate" in="SourceAlpha" result="effect1_dropShadow_59_391"/>
<feOffset/>
<feGaussianBlur stdDeviation="10"/>
<feComposite in2="hardAlpha" operator="out"/>
<feColorMatrix type="matrix" values="0 0 0 0 1 0 0 0 0 0.863566 0 0 0 0 0.266667 0 0 0 1 0"/>
<feBlend mode="normal" in2="BackgroundImageFix" result="effect1_dropShadow_59_391"/>
<feBlend mode="normal" in="SourceGraphic" in2="effect1_dropShadow_59_391" result="shape"/>
</filter>
<filter id="filter1_d_59_391" x="1163" y="804" width="74" height="74" filterUnits="userSpaceOnUse" color-interpolation-filters="sRGB">
<feFlood flood-opacity="0" result="BackgroundImageFix"/>
<feColorMatrix in="SourceAlpha" type="matrix" values="0 0 0 0 0 0 0 0 0 0 0 0 0 0 0 0 0 0 127 0" result="hardAlpha"/>
<feMorphology radius="5" operator="dilate" in="SourceAlpha" result="effect1_dropShadow_59_391"/>
<feOffset/>
<feGaussianBlur stdDeviation="10"/>
<feComposite in2="hardAlpha" operator="out"/>
<feColorMatrix type="matrix" values="0 0 0 0 1 0 0 0 0 0.863566 0 0 0 0 0.266667 0 0 0 1 0"/>
<feBlend mode="normal" in2="BackgroundImageFix" result="effect1_dropShadow_59_391"/>
<feBlend mode="normal" in="SourceGraphic" in2="effect1_dropShadow_59_391" result="shape"/>
</filter>
<filter id="filter2_d_59_391" x="1132" y="886" width="63" height="63" filterUnits="userSpaceOnUse" color-interpolation-filters="sRGB">
<feFlood flood-opacity="0" result="BackgroundImageFix"/>
<feColorMatrix in="SourceAlpha" type="matrix" values="0 0 0 0 0 0 0 0 0 0 0 0 0 0 0 0 0 0 127 0" result="hardAlpha"/>
<feMorphology radius="5" operator="dilate" in="SourceAlpha" result="effect1_dropShadow_59_391"/>
<feOffset/>
<feGaussianBlur stdDeviation="10"/>
<feComposite in2="hardAlpha" operator="out"/>
<feColorMatrix type="matrix" values="0 0 0 0 1 0 0 0 0 0.863566 0 0 0 0 0.266667 0 0 0 1 0"/>
<feBlend mode="normal" in2="BackgroundImageFix" result="effect1_dropShadow_59_391"/>
<feBlend mode="normal" in="SourceGraphic" in2="effect1_dropShadow_59_391" result="shape"/>
</filter>
<filter id="filter3_d_59_391" x="143" y="595" width="64" height="64" filterUnits="userSpaceOnUse" color-interpolation-filters="sRGB">
<feFlood flood-opacity="0" result="BackgroundImageFix"/>
<feColorMatrix in="SourceAlpha" type="matrix" values="0 0 0 0 0 0 0 0 0 0 0 0 0 0 0 0 0 0 127 0" result="hardAlpha"/>
<feMorphology radius="5" operator="dilate" in="SourceAlpha" result="effect1_dropShadow_59_391"/>
<feOffset/>
<feGaussianBlur stdDeviation="10"/>
<feComposite in2="hardAlpha" operator="out"/>
<feColorMatrix type="matrix" values="0 0 0 0 1 0 0 0 0 0.863566 0 0 0 0 0.266667 0 0 0 1 0"/>
<feBlend mode="normal" in2="BackgroundImageFix" result="effect1_dropShadow_59_391"/>
<feBlend mode="normal" in="SourceGraphic" in2="effect1_dropShadow_59_391" result="shape"/>
</filter>
<filter id="filter4_d_59_391" x="1269" y="603" width="62" height="62" filterUnits="userSpaceOnUse" color-interpolation-filters="sRGB">
<feFlood flood-opacity="0" result="BackgroundImageFix"/>
<feColorMatrix in="SourceAlpha" type="matrix" values="0 0 0 0 0 0 0 0 0 0 0 0 0 0 0 0 0 0 127 0" result="hardAlpha"/>
<feMorphology radius="5" operator="dilate" in="SourceAlpha" result="effect1_dropShadow_59_391"/>
<feOffset/>
<feGaussianBlur stdDeviation="10"/>
<feComposite in2="hardAlpha" operator="out"/>
<feColorMatrix type="matrix" values="0 0 0 0 1 0 0 0 0 0.863566 0 0 0 0 0.266667 0 0 0 1 0"/>
<feBlend mode="normal" in2="BackgroundImageFix" result="effect1_dropShadow_59_391"/>
<feBlend mode="normal" in="SourceGraphic" in2="effect1_dropShadow_59_391" result="shape"/>
</filter>
<clipPath id="clip0_59_391">
<rect width="1440" height="1185" fill="white"/>
</clipPath>
</defs>
</svg>
